<svg id="图层_1" data-name="图层 1" xmlns="http://www.w3.org/2000/svg" viewBox="0 0 2900 150"><defs><style>.cls-1{fill:#777777;}</style></defs><title>support</title><path class="cls-1" d="M0,78.11q10.32-2.94,20-5.81V42.84H1.78V33.4H20V6.88H30.49V33.4h16v9.43h-16V69q7.86-2.53,15.31-5,0,6.56.27,10.66l-15.59,5v44.09q0,14.49-13.67,14.63-5.47.14-13.12,0-.82-5.74-1.78-11.62,8.07.82,12.17.82,5.88,0,5.88-6.15V83.17q-9.23,3.08-18.59,6.29ZM50.72,68V59H85.86V38.05H50.18v-10H85.86v-22H96.8v22H134v10H96.8V59h29.12v8.2q-9.64,27.34-27.41,44.3,15.38,12.1,38.08,18.46-5.2,6-8.75,10.53-22.22-9-37.67-21.94a178.48,178.48,0,0,1-42,23,115.58,115.58,0,0,0-7.25-9.71q24.4-7.93,41.7-20.51Q67.4,94.79,59.81,68ZM114,68H70.34q6.15,21.6,20.51,36.5A87.7,87.7,0,0,0,114,68Z"/><path class="cls-1" d="M277.27,113.11q-4.92,5.61-8.75,10.94Q234.4,99.92,214,55.89v84.56H203V55.62q-19.14,41-55.92,70.21-3.15-4.38-7.93-10.39A198.14,198.14,0,0,0,197.7,48.72H143.55V38.6H203V5.51H214V38.6h59.75V48.72H219Q241.72,93.29,277.27,113.11Zm-49.9-97.89,7-7.66a276.88,276.88,0,0,1,23.52,17.91L250.2,34Q238.85,23.83,227.36,15.22Z"/><path class="cls-1" d="M281.91,25.06H344V5.38H355.2V25.06h59.2V35H355.2V55.28h38.55v9.43a122.47,122.47,0,0,1-34.86,45.46q22.35,12.1,57.42,17.16a135.13,135.13,0,0,0-7.79,11.89q-39-7.73-60-21.81-22.35,13.81-61,23.86a56.93,56.93,0,0,0-6-10.8q37.26-8.34,58-20-19.83-17-30.69-45.19H295.31v-10H344V35H281.91Zm98.57,40.2H320.4q10,24.68,28.85,38.83Q370.44,88,380.49,65.26Z"/><path class="cls-1" d="M420.27,78.79q10.39-2.32,19.14-4.44V42.29H421.5V32.45h17.91V6.06h10.66V32.45h17.5v9.84h-17.5V71.68q8.54-2.26,15-4.24a94.19,94.19,0,0,0,1,10.66q-8.55,2.26-16,4.31v41.22q0,15.31-13.95,15.31-4.24,0-13-.27a101,101,0,0,0-1.78-11.35q8.61,1,12.44,1,5.6,0,5.61-6.43V85.36q-10.12,2.87-17.77,5.2Zm45.66-24.47h39.38V35.18H473.73V25.34h31.58V6.06H516V25.34h32v9.84H516V54.32h40.61v9.84H465.94Zm.55,28.44h57.83V68.81H535V82.76h20.37V92.6H535v31q0,15-14.08,15.18-8.48.14-20.23-.14-.55-4.51-1.5-10.8A179.69,179.69,0,0,0,517.75,129q6.56,0,6.56-7.38v-29H466.48Zm8.61,18,7.66-5.61A236,236,0,0,1,500,115.3l-9.16,6.43A193,193,0,0,0,475.1,100.81Z"/><path class="cls-1" d="M593.5,44.82a8.61,8.61,0,0,1,6.22,2.53,8.19,8.19,0,0,1,2.6,6.08,8.82,8.82,0,0,1-17.64,0,8.19,8.19,0,0,1,2.6-6.08A8.6,8.6,0,0,1,593.5,44.82Zm0,61.59a8.61,8.61,0,0,1,6.22,2.53,8.62,8.62,0,0,1,0,12.34,9,9,0,0,1-12.44,0,8.62,8.62,0,0,1,0-12.34A8.6,8.6,0,0,1,593.5,106.41Z"/><path class="cls-1" d="M787.36,122.07H768.63L728.85,73.94a26.67,26.67,0,0,1-2.8-4h-.34v52.09H712V16.18H725.7V66H726a42.75,42.75,0,0,1,2.8-3.9l38.42-45.94h16.88L739.72,67Z"/><path class="cls-1" d="M814.57,16.18V122.07H800.9V16.18Z"/><path class="cls-1" d="M928.53,122.07h-16.2L859.07,39.69a40.26,40.26,0,0,1-3.62-6.9H855a123.84,123.84,0,0,1,.55,14.83v74.44H842.05V16.18h17.16L911,97.11a75.13,75.13,0,0,1,4.38,7.31h.27A118.45,118.45,0,0,1,915,89V16.18h13.54Z"/><path class="cls-1" d="M1035.92,114.82q-15.86,9-35.82,9-23,0-37-14.53T949,70.52Q949,46,964.55,30.19t39.79-15.79q17.16,0,29.05,5.47V34.63q-12.71-8-30.28-8-17.3,0-28.51,11.83T963.39,69.63q0,19.89,10.32,31t27.89,11.07q12.1,0,20.58-4.65V78.38h-23V66.28h36.71Z"/><path class="cls-1" d="M1115.83,122.07H1060V16.18h13.67V110h42.18Z"/><path class="cls-1" d="M1145.5,16.18V122.07h-13.67V16.18Z"/><path class="cls-1" d="M1259.45,122.07h-16.2L1190,39.69a40.26,40.26,0,0,1-3.62-6.9H1186a123.84,123.84,0,0,1,.55,14.83v74.44H1173V16.18h17.16L1242,97.11a75.13,75.13,0,0,1,4.38,7.31h.27a118.45,118.45,0,0,1-.68-15.45V16.18h13.54Z"/><path class="cls-1" d="M1362.13,122.07H1343.4l-39.79-48.13a26.67,26.67,0,0,1-2.8-4h-.34v52.09H1286.8V16.18h13.67V66h.34a42.75,42.75,0,0,1,2.8-3.9L1342,16.18h16.88L1314.48,67Z"/><path class="cls-1" d="M1477.66,146.13q-24.4-26.66-24.4-64.53,0-38.35,24.4-65.35h11.76q-24.27,27.69-24.27,65.21,0,37,24.13,64.67Z"/><path class="cls-1" d="M1546.15,18.23h62.62q-3-5.81-5.74-10.25l10.25-4.1q3.9,6.77,7.59,14.36h59.81v9H1546.15Zm18.46,121h-10.39V75.1h119.49v46.48q0,16.82-15.86,16.82-8.89,0-20-.27-.82-4.65-2.19-10.8,12.58,1,19.28,1,8.34,0,8.34-8.34V83.85h-98.71Zm4.92-102.95h88.73V69.63h-10.39V65.26h-67.95V69.5h-10.39Zm78.34,8.48h-67.95v12h67.95Zm-64.8,48.13h61.8v28.57h-52v5.88h-9.84Zm52,20.1V101.35h-42.11V113Z"/><path class="cls-1" d="M1729.08,52.54q-2.6,20.17-9.71,56.74,7-1.5,13-3-.14,5.33.14,9.71-15.45,3.83-45.12,9.84l-2.05-10.25q13.74-2.26,25-4.44,6.7-41.08,9-60.36ZM1686.84,33h46.89v8.89h-46.89Zm1.78,21.46,9.3-2.05q4.51,19.55,9,48l-9.43,2.46A461.88,461.88,0,0,0,1688.61,54.46ZM1698,10.71l8.34-4.92a137.2,137.2,0,0,1,13.81,20.51l-9,5.47A173.15,173.15,0,0,0,1698,10.71Zm34.86,46.76h88.46v8.89h-41l-3.76,14.9h38.35v45.39q0,11.76-10.39,11.76-3.56,0-10-.14a51.09,51.09,0,0,0-2.73-10.12q4.65.41,9.43.41,4.1,0,4.1-4.24V89.73h-14.08v42.93h-9.16V89.73h-13.54v42.11h-9.16V89.73h-13.67v49.9h-9.57V81.25h30.49l3.14-14.9h-36.91Zm68.77-8.89V44.34h-61.8V13.58h9.57V35.86h21.19V5h9.84v30.9h21.19V13.58h9.57v35Z"/><path class="cls-1" d="M1846.93,42.43l8.07-4.24q8.13,12.92,16.2,26.39a282.87,282.87,0,0,0,11.42-28.44l9.3,3.42A364,364,0,0,1,1877,74.49q7.86,13.4,15.59,27.41l-9.3,4.92q-5.67-10.8-11.69-21.74a299.44,299.44,0,0,1-18.12,29.8l-8.2-4.72v28.51H1835v-125h116.48V123.36q0,14.63-15.72,14.63-8.75,0-20.92-.27-.68-4.38-1.91-10.66,11.48,1,19.55,1,8.75,0,8.75-7.52V23.56h-96v86A342.55,342.55,0,0,0,1866,75Q1856.91,58.83,1846.93,42.43ZM1892.46,49l7.93-4.65q6.83,11.07,14.15,23.45A281.5,281.5,0,0,0,1927.87,37l9.3,3.55Q1929.44,60,1920.28,77.7q8.61,14.77,17.84,31.31l-9.16,5.2q-6.84-13-14.22-26.25a335.93,335.93,0,0,1-18,28.85l-8.34-5.33A381.88,381.88,0,0,0,1909.14,78Q1901.14,63.62,1892.46,49Z"/><path class="cls-1" d="M1965.47,115.84q14.36-2.39,29.33-5.26a524.13,524.13,0,0,0,13.6-58.86l11.07,2.6q-6.36,26.52-13.95,54.21,8.07-1.57,16.41-3.35a82.24,82.24,0,0,0,1,10q-29.26,5.88-54.82,11.48Zm1.91-81.07h56.33v9.57h-56.33ZM1972,56l9.43-2.46q6,21.06,11.21,44.16l-10.12,2.73Q1978,77.84,1972,56Zm10.53-47.3,9.71-4.24q5.47,10,11.35,22.56l-10.25,4.65A220.61,220.61,0,0,0,1982.56,8.66Zm44,65.9h26V5.79h10.94V34h38V44.34h-38V74.56h30.35V140h-10.39V132H2037V140h-10.39Zm56.88,9.57H2037v38.28h46.48Z"/><path class="cls-1" d="M2105.2,130.47q22.69-19.55,26.25-57.42l11.48,1.78a143.62,143.62,0,0,1-5,23.58q10.6,22.56,32.88,25.91V64.17h-62.48V53.91h129.88V64.17h-56.05V86.31h47.58V96.43h-47.58v28.64q27.21.68,59.2-.48a83,83,0,0,0-4,11.35q-33.5.41-58.52-.41-30.83,0-45.32-25a90.34,90.34,0,0,1-21.12,30.62A105.1,105.1,0,0,0,2105.2,130.47Zm8.07-108.28h58.31q-4-5.88-8.54-11.48l10.39-5.61q5.33,6.15,11.62,13.81l-6.15,3.28h55.37v26h-10.8V32.45h-99.39V48h-10.8Z"/><path class="cls-1" d="M2285.12,6.88h10.66V27.8h29.67v9.57h-29.67V55.69h35.68v9.57h-35.68V80.57h29.94v32.54q0,14.77-13.4,14.9-4.24.14-11.35,0-.68-4.38-2.05-9.84,6.7.41,10.94.41,5.74,0,5.74-6.84V89.87h-19.82v50.72h-10.66V89.87h-18.87v40.47h-10.12V80.57h29V65.26h-39.24V55.69h39.24V37.37h-20.23a115.94,115.94,0,0,1-7.93,14.9q-4.51-2.6-9.3-5.2a104.31,104.31,0,0,0,15-35.27l10.12,2.6q-1.78,7-4,13.4h16.34Zm62.21,97.21H2336.8V19.87h10.53ZM2363,6.74H2374V119.4q0,18.46-16.27,18.46-5.33,0-18.32-.14-.82-5.33-2.19-11.89,11.48,1.09,17.23,1.09,8.61,0,8.61-9.71Z"/><path class="cls-1" d="M2423.2,91.51q-7,23.79-29.39,47.85a111,111,0,0,0-8.2-9.57q20.51-21.46,26.8-43.2,6.15-18.66,7.25-61.11h-27.75V15.22h100.49V25.61l-13.26,26.66h25.29V62q-10.8,27.28-28.92,45.8a115.5,115.5,0,0,0,45.87,19.41,74.42,74.42,0,0,0-7.11,11.76q-29.74-9.43-47.37-23.31Q2448.36,130.75,2421,141a82.75,82.75,0,0,0-6.84-10q26.52-8.82,44.23-23Q2439.75,89.12,2429,61.16,2427,79.34,2423.2,91.51Zm42.66-37.87,14.08-28.16h-48.81q-.14,7.59-.48,14.56,13.6,39.24,36.09,60.57A104.07,104.07,0,0,0,2492,62.52h-26.11Z"/><path class="cls-1" d="M2525.33,78.79q9.16-2.12,17.64-4.31V41.33h-16.68V31.76H2543v-26h10.25v26h15.86v9.57h-15.86V71.82q8.34-2.26,15.86-4.51A97.94,97.94,0,0,0,2570,78q-8.82,2.46-16.82,4.79v41.43q0,13.95-10.8,14.63-6.84.41-13.95.27-.55-5.47-1.64-11.35,6.83.55,10.94.55,5.19,0,5.2-5.33V85.7q-8.61,2.53-16.27,4.85Zm35.14-22.7q17.36-21.05,30.9-50.72l10.25,3.42q-5.2,10.87-10.94,20.92H2659V39h-33.91V60.2h32v9.3h-32V90.69h32V100h-32v21.6h36.09v9h-74.92v10.25h-10.39V53.16q-3.83,5.4-7.79,10.6A74.51,74.51,0,0,0,2560.47,56.1Zm25.84,4.1h28.44V39h-28.44Zm0,30.49h28.44V69.5h-28.44Zm0,30.9h28.44V100h-28.44Zm25-110.47,8.61-5.33q6.7,8.61,12.3,17l-9.43,5.88Q2617.75,20.14,2611.33,11.12Z"/><path class="cls-1" d="M2684.75,26.16h54.48q-3.83-6.56-10.19-15.59l10-5.74q6.7,8.61,11.89,16.82l-7.66,4.51h56.05V37.23h-102.4V71.14q.14,42.93-22.29,68.36a83.49,83.49,0,0,0-9.84-8.61q20-21.74,20-61.11Z"/><path class="cls-1" d="M2827.75,146.13H2816q24.27-27.62,24.27-65.35,0-37.05-24.13-64.53h11.62Q2852,42.7,2852,80.78,2852,119.26,2827.75,146.13Z"/></svg>